3.0Hz3min_grf.mot
version=1
nRows=20
nColumns 19
inDegrees=yes
endheader
time	1_ground_force_vx	1_ground_force_vy	1_ground_force_vz	1_ground_force_px	1_ground_force_py	1_ground_force_pz	1_ground_torque_x	1_ground_torque_y	1_ground_torque_z	2_ground_force_vx	2_ground_force_vy	2_ground_force_vz	2_ground_force_px	2_ground_force_py	2_ground_force_pz	2_ground_torque_x	2_ground_torque_y	2_ground_torque_z
            1.253500	           -2.084090	          563.786696	          -20.047565	           -0.093417	            0.006273	           -0.411025	           -0.003596	            0.972781	           -0.034591	          -16.113610	          611.083660	           17.438331	           -0.074592	            0.006127	           -0.673279	            0.011078	           -0.420101	           -0.011988
            1.254000	           -1.760768	          556.754461	          -19.619947	           -0.093307	            0.006274	           -0.411201	           -0.003400	            1.074970	           -0.037882	          -15.719119	          605.562557	           16.855322	           -0.074928	            0.006126	           -0.673179	            0.011673	           -0.449704	           -0.012517
            1.254500	           -1.758703	          549.182184	          -19.377276	           -0.093124	            0.006275	           -0.411414	           -0.003286	            1.026012	           -0.036202	          -15.413367	          598.749559	           16.971676	           -0.074495	            0.006127	           -0.673176	            0.008839	           -0.343367	           -0.009733
            1.255000	           -1.848569	          542.331027	          -19.177142	           -0.093067	            0.006275	           -0.411532	           -0.003049	            0.894532	           -0.031631	          -15.624478	          592.304610	           16.667210	           -0.074595	            0.006127	           -0.673144	            0.007519	           -0.285029	           -0.008021
            1.255500	           -1.662532	          535.838942	          -18.609297	           -0.093081	            0.006275	           -0.411448	           -0.002408	            0.776154	           -0.026955	          -15.324831	          587.149943	           16.507908	           -0.074752	            0.006126	           -0.673269	            0.007325	           -0.280664	           -0.007891
            1.256000	           -1.843842	          529.528066	          -18.269048	           -0.092917	            0.006275	           -0.411541	           -0.002609	            0.749272	           -0.025850	          -14.969070	          579.417689	           16.245532	           -0.074274	            0.006127	           -0.672812	            0.008505	           -0.329210	           -0.009230
            1.256500	           -1.978865	          521.414284	          -17.890787	           -0.092550	            0.006278	           -0.412102	           -0.002669	            0.703387	           -0.024135	          -14.622697	          574.264196	           15.804642	           -0.074397	            0.006128	           -0.673229	            0.009917	           -0.389447	           -0.010718
            1.257000	           -1.885413	          516.725882	          -17.544264	           -0.092992	            0.006275	           -0.411495	           -0.003451	            0.945675	           -0.032108	          -14.317568	          567.635065	           16.015508	           -0.074584	            0.006126	           -0.672948	            0.006668	           -0.264378	           -0.007459
            1.257500	           -1.424657	          508.972944	          -17.211792	           -0.092693	            0.006276	           -0.411665	           -0.002871	            1.025767	           -0.034688	          -14.295780	          561.559410	           15.665329	           -0.074389	            0.006127	           -0.672948	            0.006537	           -0.256787	           -0.007163
            1.258000	           -1.652493	          502.663177	          -17.146565	           -0.092641	            0.006276	           -0.411789	           -0.002837	            0.862980	           -0.029437	          -13.899192	          555.484987	           15.314990	           -0.074088	            0.006128	           -0.673084	            0.005860	           -0.234182	           -0.006456
            1.258500	           -1.329269	          496.171709	          -16.716629	           -0.092561	            0.006276	           -0.411637	           -0.001997	            0.745319	           -0.025111	          -14.017892	          549.408323	           15.105654	           -0.074162	            0.006128	           -0.673021	            0.003268	           -0.128082	           -0.003522
            1.259000	           -1.097422	          489.859929	          -16.148124	           -0.092610	            0.006275	           -0.411489	           -0.001609	            0.718248	           -0.023677	          -13.431890	          542.781926	           14.800192	           -0.074033	            0.006128	           -0.672888	            0.005726	           -0.231387	           -0.006309
            1.259500	           -1.049400	          482.287403	          -15.859711	           -0.092114	            0.006277	           -0.411927	           -0.001496	            0.687336	           -0.022603	          -13.223887	          537.074058	           14.779744	           -0.073999	            0.006128	           -0.672891	            0.006430	           -0.261130	           -0.007186
            1.260000	           -1.231102	          476.878218	          -15.607310	           -0.092335	            0.006276	           -0.411670	           -0.001955	            0.757186	           -0.024781	          -12.732791	          530.814722	           14.757205	           -0.073732	            0.006129	           -0.672907	            0.005499	           -0.229242	           -0.006373
            1.260500	           -1.137009	          469.305308	          -15.227298	           -0.092005	            0.006277	           -0.411914	           -0.002130	            0.879269	           -0.028529	          -12.805326	          524.922474	           14.501578	           -0.074038	            0.006128	           -0.672964	            0.004397	           -0.180234	           -0.004979
            1.261000	           -1.227010	          464.436710	          -14.926950	           -0.092674	            0.006274	           -0.411341	           -0.002363	            0.894568	           -0.028751	          -12.501856	          518.664302	           13.962910	           -0.073802	            0.006128	           -0.672763	            0.003636	           -0.150856	           -0.004061
            1.261500	           -0.812846	          457.045535	          -14.867953	           -0.092176	            0.006277	           -0.411965	           -0.001450	            0.815078	           -0.026515	          -12.197454	          512.219753	           14.033649	           -0.073579	            0.006129	           -0.672832	            0.001342	           -0.056356	           -0.001544
            1.262000	           -0.856201	          449.652637	          -14.440972	           -0.091668	            0.006278	           -0.412116	           -0.001294	            0.679356	           -0.021818	          -11.988245	          506.144547	           13.730318	           -0.073386	            0.006129	           -0.672644	            0.001664	           -0.070260	           -0.001906
            1.262500	           -1.176165	          445.145767	          -14.413643	           -0.092303	            0.006275	           -0.411546	           -0.001342	            0.507876	           -0.016445	          -11.827736	          500.620422	           13.757474	           -0.073781	            0.006128	           -0.672706	            0.001028	           -0.043530	           -0.001196
            1.263000	           -0.761549	          439.015241	          -14.074101	           -0.092170	            0.006276	           -0.411595	           -0.001031	            0.594199	           -0.019049	          -11.475278	          493.808764	           13.545311	           -0.073270	            0.006129	           -0.672611	            0.002988	           -0.128586	           -0.003527
